<svg xmlns="http://www.w3.org/2000/svg" viewBox="0 0 800 180" fill="none">
<circle cx="10" cy="10" r="1.3" fill="#A9BDF0" opacity="0.025"/>
<circle cx="30" cy="10" r="1.3" fill="#A9BDF0" opacity="0.025"/>
<circle cx="50" cy="10" r="1.3" fill="#A9BDF0" opacity="0.025"/>
<circle cx="70" cy="10" r="1.3" fill="#A9BDF0" opacity="0.025"/>
<circle cx="90" cy="10" r="1.3" fill="#A9BDF0" opacity="0.025"/>
<circle cx="110" cy="10" r="1.3" fill="#A9BDF0" opacity="0.025"/>
<circle cx="130" cy="10" r="1.3" fill="#A9BDF0" opacity="0.025"/>
<circle cx="150" cy="10" r="1.3" fill="#A9BDF0" opacity="0.025"/>
<circle cx="170" cy="10" r="1.3" fill="#A9BDF0" opacity="0.025"/>
<circle cx="190" cy="10" r="1.3" fill="#A9BDF0" opacity="0.025"/>
<circle cx="210" cy="10" r="1.3" fill="#A9BDF0" opacity="0.025"/>
<circle cx="230" cy="10" r="1.3" fill="#A9BDF0" opacity="0.025"/>
<circle cx="250" cy="10" r="1.3" fill="#A9BDF0" opacity="0.025"/>
<circle cx="270" cy="10" r="1.3" fill="#A9BDF0" opacity="0.025"/>
<circle cx="290" cy="10" r="1.3" fill="#A9BDF0" opacity="0.025"/>
<circle cx="310" cy="10" r="1.3" fill="#A9BDF0" opacity="0.025"/>
<circle cx="330" cy="10" r="1.3" fill="#A9BDF0" opacity="0.025"/>
<circle cx="350" cy="10" r="1.3" fill="#A9BDF0" opacity="0.025"/>
<circle cx="370" cy="10" r="1.3" fill="#A9BDF0" opacity="0.025"/>
<circle cx="390" cy="10" r="1.3" fill="#A9BDF0" opacity="0.025"/>
<circle cx="410" cy="10" r="1.3" fill="#A9BDF0" opacity="0.025"/>
<circle cx="430" cy="10" r="1.3" fill="#A9BDF0" opacity="0.025"/>
<circle cx="450" cy="10" r="1.3" fill="#A9BDF0" opacity="0.025"/>
<circle cx="470" cy="10" r="1.3" fill="#A9BDF0" opacity="0.025"/>
<circle cx="490" cy="10" r="1.3" fill="#A9BDF0" opacity="0.025"/>
<circle cx="510" cy="10" r="1.3" fill="#A9BDF0" opacity="0.025"/>
<circle cx="530" cy="10" r="1.3" fill="#A9BDF0" opacity="0.025"/>
<circle cx="550" cy="10" r="1.3" fill="#A9BDF0" opacity="0.025"/>
<circle cx="570" cy="10" r="1.3" fill="#A9BDF0" opacity="0.025"/>
<circle cx="590" cy="10" r="1.3" fill="#A9BDF0" opacity="0.025"/>
<circle cx="610" cy="10" r="1.3" fill="#A9BDF0" opacity="0.025"/>
<circle cx="630" cy="10" r="1.3" fill="#A9BDF0" opacity="0.025"/>
<circle cx="650" cy="10" r="1.3" fill="#A9BDF0" opacity="0.025"/>
<circle cx="670" cy="10" r="1.3" fill="#A9BDF0" opacity="0.025"/>
<circle cx="690" cy="10" r="1.3" fill="#A9BDF0" opacity="0.025"/>
<circle cx="710" cy="10" r="1.3" fill="#A9BDF0" opacity="0.025"/>
<circle cx="730" cy="10" r="1.3" fill="#A9BDF0" opacity="0.025"/>
<circle cx="750" cy="10" r="1.3" fill="#A9BDF0" opacity="0.025"/>
<circle cx="770" cy="10" r="1.3" fill="#A9BDF0" opacity="0.025"/>
<circle cx="790" cy="10" r="1.3" fill="#A9BDF0" opacity="0.025"/>
<circle cx="10" cy="30" r="1.64" fill="#A9BDF0" opacity="0.029"/>
<circle cx="30" cy="30" r="1.64" fill="#A9BDF0" opacity="0.029"/>
<circle cx="50" cy="30" r="1.64" fill="#A9BDF0" opacity="0.029"/>
<circle cx="70" cy="30" r="1.64" fill="#A9BDF0" opacity="0.029"/>
<circle cx="90" cy="30" r="1.64" fill="#A9BDF0" opacity="0.029"/>
<circle cx="110" cy="30" r="1.64" fill="#A9BDF0" opacity="0.029"/>
<circle cx="130" cy="30" r="1.64" fill="#A9BDF0" opacity="0.029"/>
<circle cx="150" cy="30" r="1.64" fill="#A9BDF0" opacity="0.029"/>
<circle cx="170" cy="30" r="1.64" fill="#A9BDF0" opacity="0.029"/>
<circle cx="190" cy="30" r="1.64" fill="#A9BDF0" opacity="0.029"/>
<circle cx="210" cy="30" r="1.64" fill="#A9BDF0" opacity="0.029"/>
<circle cx="230" cy="30" r="1.64" fill="#A9BDF0" opacity="0.029"/>
<circle cx="250" cy="30" r="1.64" fill="#A9BDF0" opacity="0.029"/>
<circle cx="270" cy="30" r="1.64" fill="#A9BDF0" opacity="0.029"/>
<circle cx="290" cy="30" r="1.64" fill="#A9BDF0" opacity="0.029"/>
<circle cx="310" cy="30" r="1.64" fill="#A9BDF0" opacity="0.029"/>
<circle cx="330" cy="30" r="1.64" fill="#A9BDF0" opacity="0.029"/>
<circle cx="350" cy="30" r="1.64" fill="#A9BDF0" opacity="0.029"/>
<circle cx="370" cy="30" r="1.64" fill="#A9BDF0" opacity="0.029"/>
<circle cx="390" cy="30" r="1.64" fill="#A9BDF0" opacity="0.029"/>
<circle cx="410" cy="30" r="1.64" fill="#A9BDF0" opacity="0.029"/>
<circle cx="430" cy="30" r="1.64" fill="#A9BDF0" opacity="0.029"/>
<circle cx="450" cy="30" r="1.64" fill="#A9BDF0" opacity="0.029"/>
<circle cx="470" cy="30" r="1.64" fill="#A9BDF0" opacity="0.029"/>
<circle cx="490" cy="30" r="1.64" fill="#A9BDF0" opacity="0.029"/>
<circle cx="510" cy="30" r="1.64" fill="#A9BDF0" opacity="0.029"/>
<circle cx="530" cy="30" r="1.64" fill="#A9BDF0" opacity="0.029"/>
<circle cx="550" cy="30" r="1.64" fill="#A9BDF0" opacity="0.029"/>
<circle cx="570" cy="30" r="1.64" fill="#A9BDF0" opacity="0.029"/>
<circle cx="590" cy="30" r="1.64" fill="#A9BDF0" opacity="0.029"/>
<circle cx="610" cy="30" r="1.64" fill="#A9BDF0" opacity="0.029"/>
<circle cx="630" cy="30" r="1.64" fill="#A9BDF0" opacity="0.029"/>
<circle cx="650" cy="30" r="1.64" fill="#A9BDF0" opacity="0.029"/>
<circle cx="670" cy="30" r="1.64" fill="#A9BDF0" opacity="0.029"/>
<circle cx="690" cy="30" r="1.64" fill="#A9BDF0" opacity="0.029"/>
<circle cx="710" cy="30" r="1.64" fill="#A9BDF0" opacity="0.029"/>
<circle cx="730" cy="30" r="1.64" fill="#A9BDF0" opacity="0.029"/>
<circle cx="750" cy="30" r="1.64" fill="#A9BDF0" opacity="0.029"/>
<circle cx="770" cy="30" r="1.64" fill="#A9BDF0" opacity="0.029"/>
<circle cx="790" cy="30" r="1.64" fill="#A9BDF0" opacity="0.029"/>
<circle cx="10" cy="50" r="1.98" fill="#A9BDF0" opacity="0.04"/>
<circle cx="30" cy="50" r="1.98" fill="#A9BDF0" opacity="0.04"/>
<circle cx="50" cy="50" r="1.98" fill="#A9BDF0" opacity="0.04"/>
<circle cx="70" cy="50" r="1.98" fill="#A9BDF0" opacity="0.04"/>
<circle cx="90" cy="50" r="1.98" fill="#A9BDF0" opacity="0.04"/>
<circle cx="110" cy="50" r="1.98" fill="#A9BDF0" opacity="0.04"/>
<circle cx="130" cy="50" r="1.98" fill="#A9BDF0" opacity="0.04"/>
<circle cx="150" cy="50" r="1.98" fill="#A9BDF0" opacity="0.04"/>
<circle cx="170" cy="50" r="1.98" fill="#A9BDF0" opacity="0.04"/>
<circle cx="190" cy="50" r="1.98" fill="#A9BDF0" opacity="0.04"/>
<circle cx="210" cy="50" r="1.98" fill="#A9BDF0" opacity="0.04"/>
<circle cx="230" cy="50" r="1.98" fill="#A9BDF0" opacity="0.04"/>
<circle cx="250" cy="50" r="1.98" fill="#A9BDF0" opacity="0.04"/>
<circle cx="270" cy="50" r="1.98" fill="#A9BDF0" opacity="0.04"/>
<circle cx="290" cy="50" r="1.98" fill="#A9BDF0" opacity="0.04"/>
<circle cx="310" cy="50" r="1.98" fill="#A9BDF0" opacity="0.04"/>
<circle cx="330" cy="50" r="1.98" fill="#A9BDF0" opacity="0.04"/>
<circle cx="350" cy="50" r="1.98" fill="#A9BDF0" opacity="0.04"/>
<circle cx="370" cy="50" r="1.98" fill="#A9BDF0" opacity="0.04"/>
<circle cx="390" cy="50" r="1.98" fill="#A9BDF0" opacity="0.04"/>
<circle cx="410" cy="50" r="1.98" fill="#A9BDF0" opacity="0.04"/>
<circle cx="430" cy="50" r="1.98" fill="#A9BDF0" opacity="0.04"/>
<circle cx="450" cy="50" r="1.98" fill="#A9BDF0" opacity="0.04"/>
<circle cx="470" cy="50" r="1.98" fill="#A9BDF0" opacity="0.04"/>
<circle cx="490" cy="50" r="1.98" fill="#A9BDF0" opacity="0.04"/>
<circle cx="510" cy="50" r="1.98" fill="#A9BDF0" opacity="0.04"/>
<circle cx="530" cy="50" r="1.98" fill="#A9BDF0" opacity="0.04"/>
<circle cx="550" cy="50" r="1.98" fill="#A9BDF0" opacity="0.04"/>
<circle cx="570" cy="50" r="1.98" fill="#A9BDF0" opacity="0.04"/>
<circle cx="590" cy="50" r="1.98" fill="#A9BDF0" opacity="0.04"/>
<circle cx="610" cy="50" r="1.98" fill="#A9BDF0" opacity="0.04"/>
<circle cx="630" cy="50" r="1.98" fill="#A9BDF0" opacity="0.04"/>
<circle cx="650" cy="50" r="1.98" fill="#A9BDF0" opacity="0.04"/>
<circle cx="670" cy="50" r="1.98" fill="#A9BDF0" opacity="0.04"/>
<circle cx="690" cy="50" r="1.98" fill="#A9BDF0" opacity="0.04"/>
<circle cx="710" cy="50" r="1.98" fill="#A9BDF0" opacity="0.04"/>
<circle cx="730" cy="50" r="1.98" fill="#A9BDF0" opacity="0.04"/>
<circle cx="750" cy="50" r="1.98" fill="#A9BDF0" opacity="0.04"/>
<circle cx="770" cy="50" r="1.98" fill="#A9BDF0" opacity="0.04"/>
<circle cx="790" cy="50" r="1.98" fill="#A9BDF0" opacity="0.04"/>
<circle cx="10" cy="70" r="2.31" fill="#A9BDF0" opacity="0.058"/>
<circle cx="30" cy="70" r="2.31" fill="#A9BDF0" opacity="0.058"/>
<circle cx="50" cy="70" r="2.31" fill="#A9BDF0" opacity="0.058"/>
<circle cx="70" cy="70" r="2.31" fill="#A9BDF0" opacity="0.058"/>
<circle cx="90" cy="70" r="2.31" fill="#A9BDF0" opacity="0.058"/>
<circle cx="110" cy="70" r="2.31" fill="#A9BDF0" opacity="0.058"/>
<circle cx="130" cy="70" r="2.31" fill="#A9BDF0" opacity="0.058"/>
<circle cx="150" cy="70" r="2.31" fill="#A9BDF0" opacity="0.058"/>
<circle cx="170" cy="70" r="2.31" fill="#A9BDF0" opacity="0.058"/>
<circle cx="190" cy="70" r="2.31" fill="#A9BDF0" opacity="0.058"/>
<circle cx="210" cy="70" r="2.31" fill="#A9BDF0" opacity="0.058"/>
<circle cx="230" cy="70" r="2.31" fill="#A9BDF0" opacity="0.058"/>
<circle cx="250" cy="70" r="2.31" fill="#A9BDF0" opacity="0.058"/>
<circle cx="270" cy="70" r="2.31" fill="#A9BDF0" opacity="0.058"/>
<circle cx="290" cy="70" r="2.31" fill="#A9BDF0" opacity="0.058"/>
<circle cx="310" cy="70" r="2.31" fill="#A9BDF0" opacity="0.058"/>
<circle cx="330" cy="70" r="2.31" fill="#A9BDF0" opacity="0.058"/>
<circle cx="350" cy="70" r="2.31" fill="#A9BDF0" opacity="0.058"/>
<circle cx="370" cy="70" r="2.31" fill="#A9BDF0" opacity="0.058"/>
<circle cx="390" cy="70" r="2.31" fill="#A9BDF0" opacity="0.058"/>
<circle cx="410" cy="70" r="2.31" fill="#A9BDF0" opacity="0.058"/>
<circle cx="430" cy="70" r="2.31" fill="#A9BDF0" opacity="0.058"/>
<circle cx="450" cy="70" r="2.31" fill="#A9BDF0" opacity="0.058"/>
<circle cx="470" cy="70" r="2.31" fill="#A9BDF0" opacity="0.058"/>
<circle cx="490" cy="70" r="2.31" fill="#A9BDF0" opacity="0.058"/>
<circle cx="510" cy="70" r="2.31" fill="#A9BDF0" opacity="0.058"/>
<circle cx="530" cy="70" r="2.31" fill="#A9BDF0" opacity="0.058"/>
<circle cx="550" cy="70" r="2.31" fill="#A9BDF0" opacity="0.058"/>
<circle cx="570" cy="70" r="2.31" fill="#A9BDF0" opacity="0.058"/>
<circle cx="590" cy="70" r="2.31" fill="#A9BDF0" opacity="0.058"/>
<circle cx="610" cy="70" r="2.31" fill="#A9BDF0" opacity="0.058"/>
<circle cx="630" cy="70" r="2.31" fill="#A9BDF0" opacity="0.058"/>
<circle cx="650" cy="70" r="2.31" fill="#A9BDF0" opacity="0.058"/>
<circle cx="670" cy="70" r="2.31" fill="#A9BDF0" opacity="0.058"/>
<circle cx="690" cy="70" r="2.31" fill="#A9BDF0" opacity="0.058"/>
<circle cx="710" cy="70" r="2.31" fill="#A9BDF0" opacity="0.058"/>
<circle cx="730" cy="70" r="2.31" fill="#A9BDF0" opacity="0.058"/>
<circle cx="750" cy="70" r="2.31" fill="#A9BDF0" opacity="0.058"/>
<circle cx="770" cy="70" r="2.31" fill="#A9BDF0" opacity="0.058"/>
<circle cx="790" cy="70" r="2.31" fill="#A9BDF0" opacity="0.058"/>
<circle cx="10" cy="90" r="2.65" fill="#A9BDF0" opacity="0.084"/>
<circle cx="30" cy="90" r="2.65" fill="#A9BDF0" opacity="0.084"/>
<circle cx="50" cy="90" r="2.65" fill="#A9BDF0" opacity="0.084"/>
<circle cx="70" cy="90" r="2.65" fill="#A9BDF0" opacity="0.084"/>
<circle cx="90" cy="90" r="2.65" fill="#A9BDF0" opacity="0.084"/>
<circle cx="110" cy="90" r="2.65" fill="#A9BDF0" opacity="0.084"/>
<circle cx="130" cy="90" r="2.65" fill="#A9BDF0" opacity="0.084"/>
<circle cx="150" cy="90" r="2.65" fill="#A9BDF0" opacity="0.084"/>
<circle cx="170" cy="90" r="2.65" fill="#A9BDF0" opacity="0.084"/>
<circle cx="190" cy="90" r="2.65" fill="#A9BDF0" opacity="0.084"/>
<circle cx="210" cy="90" r="2.65" fill="#A9BDF0" opacity="0.084"/>
<circle cx="230" cy="90" r="2.65" fill="#A9BDF0" opacity="0.084"/>
<circle cx="250" cy="90" r="2.65" fill="#A9BDF0" opacity="0.084"/>
<circle cx="270" cy="90" r="2.65" fill="#A9BDF0" opacity="0.084"/>
<circle cx="290" cy="90" r="2.65" fill="#A9BDF0" opacity="0.084"/>
<circle cx="310" cy="90" r="2.65" fill="#A9BDF0" opacity="0.084"/>
<circle cx="330" cy="90" r="2.65" fill="#A9BDF0" opacity="0.084"/>
<circle cx="350" cy="90" r="2.65" fill="#A9BDF0" opacity="0.084"/>
<circle cx="370" cy="90" r="2.65" fill="#A9BDF0" opacity="0.084"/>
<circle cx="390" cy="90" r="2.65" fill="#A9BDF0" opacity="0.084"/>
<circle cx="410" cy="90" r="2.65" fill="#A9BDF0" opacity="0.084"/>
<circle cx="430" cy="90" r="2.65" fill="#A9BDF0" opacity="0.084"/>
<circle cx="450" cy="90" r="2.65" fill="#A9BDF0" opacity="0.084"/>
<circle cx="470" cy="90" r="2.65" fill="#A9BDF0" opacity="0.084"/>
<circle cx="490" cy="90" r="2.65" fill="#A9BDF0" opacity="0.084"/>
<circle cx="510" cy="90" r="2.65" fill="#A9BDF0" opacity="0.084"/>
<circle cx="530" cy="90" r="2.65" fill="#A9BDF0" opacity="0.084"/>
<circle cx="550" cy="90" r="2.65" fill="#A9BDF0" opacity="0.084"/>
<circle cx="570" cy="90" r="2.65" fill="#A9BDF0" opacity="0.084"/>
<circle cx="590" cy="90" r="2.65" fill="#A9BDF0" opacity="0.084"/>
<circle cx="610" cy="90" r="2.65" fill="#A9BDF0" opacity="0.084"/>
<circle cx="630" cy="90" r="2.65" fill="#A9BDF0" opacity="0.084"/>
<circle cx="650" cy="90" r="2.65" fill="#A9BDF0" opacity="0.084"/>
<circle cx="670" cy="90" r="2.65" fill="#A9BDF0" opacity="0.084"/>
<circle cx="690" cy="90" r="2.65" fill="#A9BDF0" opacity="0.084"/>
<circle cx="710" cy="90" r="2.65" fill="#A9BDF0" opacity="0.084"/>
<circle cx="730" cy="90" r="2.65" fill="#A9BDF0" opacity="0.084"/>
<circle cx="750" cy="90" r="2.65" fill="#A9BDF0" opacity="0.084"/>
<circle cx="770" cy="90" r="2.65" fill="#A9BDF0" opacity="0.084"/>
<circle cx="790" cy="90" r="2.65" fill="#A9BDF0" opacity="0.084"/>
<circle cx="10" cy="110" r="2.99" fill="#A9BDF0" opacity="0.117"/>
<circle cx="30" cy="110" r="2.99" fill="#A9BDF0" opacity="0.117"/>
<circle cx="50" cy="110" r="2.99" fill="#A9BDF0" opacity="0.117"/>
<circle cx="70" cy="110" r="2.99" fill="#A9BDF0" opacity="0.117"/>
<circle cx="90" cy="110" r="2.99" fill="#A9BDF0" opacity="0.117"/>
<circle cx="110" cy="110" r="2.99" fill="#A9BDF0" opacity="0.117"/>
<circle cx="130" cy="110" r="2.99" fill="#A9BDF0" opacity="0.117"/>
<circle cx="150" cy="110" r="2.99" fill="#A9BDF0" opacity="0.117"/>
<circle cx="170" cy="110" r="2.99" fill="#A9BDF0" opacity="0.117"/>
<circle cx="190" cy="110" r="2.99" fill="#A9BDF0" opacity="0.117"/>
<circle cx="210" cy="110" r="2.99" fill="#A9BDF0" opacity="0.117"/>
<circle cx="230" cy="110" r="2.99" fill="#A9BDF0" opacity="0.117"/>
<circle cx="250" cy="110" r="2.99" fill="#A9BDF0" opacity="0.117"/>
<circle cx="270" cy="110" r="2.99" fill="#A9BDF0" opacity="0.117"/>
<circle cx="290" cy="110" r="2.99" fill="#A9BDF0" opacity="0.117"/>
<circle cx="310" cy="110" r="2.99" fill="#A9BDF0" opacity="0.117"/>
<circle cx="330" cy="110" r="2.99" fill="#A9BDF0" opacity="0.117"/>
<circle cx="350" cy="110" r="2.99" fill="#A9BDF0" opacity="0.117"/>
<circle cx="370" cy="110" r="2.99" fill="#A9BDF0" opacity="0.117"/>
<circle cx="390" cy="110" r="2.99" fill="#A9BDF0" opacity="0.117"/>
<circle cx="410" cy="110" r="2.99" fill="#A9BDF0" opacity="0.117"/>
<circle cx="430" cy="110" r="2.99" fill="#A9BDF0" opacity="0.117"/>
<circle cx="450" cy="110" r="2.99" fill="#A9BDF0" opacity="0.117"/>
<circle cx="470" cy="110" r="2.99" fill="#A9BDF0" opacity="0.117"/>
<circle cx="490" cy="110" r="2.99" fill="#A9BDF0" opacity="0.117"/>
<circle cx="510" cy="110" r="2.99" fill="#A9BDF0" opacity="0.117"/>
<circle cx="530" cy="110" r="2.99" fill="#A9BDF0" opacity="0.117"/>
<circle cx="550" cy="110" r="2.99" fill="#A9BDF0" opacity="0.117"/>
<circle cx="570" cy="110" r="2.99" fill="#A9BDF0" opacity="0.117"/>
<circle cx="590" cy="110" r="2.99" fill="#A9BDF0" opacity="0.117"/>
<circle cx="610" cy="110" r="2.99" fill="#A9BDF0" opacity="0.117"/>
<circle cx="630" cy="110" r="2.99" fill="#A9BDF0" opacity="0.117"/>
<circle cx="650" cy="110" r="2.99" fill="#A9BDF0" opacity="0.117"/>
<circle cx="670" cy="110" r="2.99" fill="#A9BDF0" opacity="0.117"/>
<circle cx="690" cy="110" r="2.99" fill="#A9BDF0" opacity="0.117"/>
<circle cx="710" cy="110" r="2.99" fill="#A9BDF0" opacity="0.117"/>
<circle cx="730" cy="110" r="2.99" fill="#A9BDF0" opacity="0.117"/>
<circle cx="750" cy="110" r="2.99" fill="#A9BDF0" opacity="0.117"/>
<circle cx="770" cy="110" r="2.99" fill="#A9BDF0" opacity="0.117"/>
<circle cx="790" cy="110" r="2.99" fill="#A9BDF0" opacity="0.117"/>
<circle cx="10" cy="130" r="3.33" fill="#A9BDF0" opacity="0.157"/>
<circle cx="30" cy="130" r="3.33" fill="#A9BDF0" opacity="0.157"/>
<circle cx="50" cy="130" r="3.33" fill="#A9BDF0" opacity="0.157"/>
<circle cx="70" cy="130" r="3.33" fill="#A9BDF0" opacity="0.157"/>
<circle cx="90" cy="130" r="3.33" fill="#A9BDF0" opacity="0.157"/>
<circle cx="110" cy="130" r="3.33" fill="#A9BDF0" opacity="0.157"/>
<circle cx="130" cy="130" r="3.33" fill="#A9BDF0" opacity="0.157"/>
<circle cx="150" cy="130" r="3.33" fill="#A9BDF0" opacity="0.157"/>
<circle cx="170" cy="130" r="3.33" fill="#A9BDF0" opacity="0.157"/>
<circle cx="190" cy="130" r="3.33" fill="#A9BDF0" opacity="0.157"/>
<circle cx="210" cy="130" r="3.33" fill="#A9BDF0" opacity="0.157"/>
<circle cx="230" cy="130" r="3.33" fill="#A9BDF0" opacity="0.157"/>
<circle cx="250" cy="130" r="3.33" fill="#A9BDF0" opacity="0.157"/>
<circle cx="270" cy="130" r="3.33" fill="#A9BDF0" opacity="0.157"/>
<circle cx="290" cy="130" r="3.33" fill="#A9BDF0" opacity="0.157"/>
<circle cx="310" cy="130" r="3.33" fill="#A9BDF0" opacity="0.157"/>
<circle cx="330" cy="130" r="3.33" fill="#A9BDF0" opacity="0.157"/>
<circle cx="350" cy="130" r="3.33" fill="#A9BDF0" opacity="0.157"/>
<circle cx="370" cy="130" r="3.33" fill="#A9BDF0" opacity="0.157"/>
<circle cx="390" cy="130" r="3.33" fill="#A9BDF0" opacity="0.157"/>
<circle cx="410" cy="130" r="3.33" fill="#A9BDF0" opacity="0.157"/>
<circle cx="430" cy="130" r="3.33" fill="#A9BDF0" opacity="0.157"/>
<circle cx="450" cy="130" r="3.33" fill="#A9BDF0" opacity="0.157"/>
<circle cx="470" cy="130" r="3.33" fill="#A9BDF0" opacity="0.157"/>
<circle cx="490" cy="130" r="3.33" fill="#A9BDF0" opacity="0.157"/>
<circle cx="510" cy="130" r="3.33" fill="#A9BDF0" opacity="0.157"/>
<circle cx="530" cy="130" r="3.33" fill="#A9BDF0" opacity="0.157"/>
<circle cx="550" cy="130" r="3.33" fill="#A9BDF0" opacity="0.157"/>
<circle cx="570" cy="130" r="3.33" fill="#A9BDF0" opacity="0.157"/>
<circle cx="590" cy="130" r="3.33" fill="#A9BDF0" opacity="0.157"/>
<circle cx="610" cy="130" r="3.33" fill="#A9BDF0" opacity="0.157"/>
<circle cx="630" cy="130" r="3.33" fill="#A9BDF0" opacity="0.157"/>
<circle cx="650" cy="130" r="3.33" fill="#A9BDF0" opacity="0.157"/>
<circle cx="670" cy="130" r="3.33" fill="#A9BDF0" opacity="0.157"/>
<circle cx="690" cy="130" r="3.33" fill="#A9BDF0" opacity="0.157"/>
<circle cx="710" cy="130" r="3.33" fill="#A9BDF0" opacity="0.157"/>
<circle cx="730" cy="130" r="3.33" fill="#A9BDF0" opacity="0.157"/>
<circle cx="750" cy="130" r="3.33" fill="#A9BDF0" opacity="0.157"/>
<circle cx="770" cy="130" r="3.33" fill="#A9BDF0" opacity="0.157"/>
<circle cx="790" cy="130" r="3.33" fill="#A9BDF0" opacity="0.157"/>
<circle cx="10" cy="150" r="3.66" fill="#A9BDF0" opacity="0.205"/>
<circle cx="30" cy="150" r="3.66" fill="#A9BDF0" opacity="0.205"/>
<circle cx="50" cy="150" r="3.66" fill="#A9BDF0" opacity="0.205"/>
<circle cx="70" cy="150" r="3.66" fill="#A9BDF0" opacity="0.205"/>
<circle cx="90" cy="150" r="3.66" fill="#A9BDF0" opacity="0.205"/>
<circle cx="110" cy="150" r="3.66" fill="#A9BDF0" opacity="0.205"/>
<circle cx="130" cy="150" r="3.66" fill="#A9BDF0" opacity="0.205"/>
<circle cx="150" cy="150" r="3.66" fill="#A9BDF0" opacity="0.205"/>
<circle cx="170" cy="150" r="3.66" fill="#A9BDF0" opacity="0.205"/>
<circle cx="190" cy="150" r="3.66" fill="#A9BDF0" opacity="0.205"/>
<circle cx="210" cy="150" r="3.66" fill="#A9BDF0" opacity="0.205"/>
<circle cx="230" cy="150" r="3.66" fill="#A9BDF0" opacity="0.205"/>
<circle cx="250" cy="150" r="3.66" fill="#A9BDF0" opacity="0.205"/>
<circle cx="270" cy="150" r="3.66" fill="#A9BDF0" opacity="0.205"/>
<circle cx="290" cy="150" r="3.66" fill="#A9BDF0" opacity="0.205"/>
<circle cx="310" cy="150" r="3.66" fill="#A9BDF0" opacity="0.205"/>
<circle cx="330" cy="150" r="3.66" fill="#A9BDF0" opacity="0.205"/>
<circle cx="350" cy="150" r="3.66" fill="#A9BDF0" opacity="0.205"/>
<circle cx="370" cy="150" r="3.66" fill="#A9BDF0" opacity="0.205"/>
<circle cx="390" cy="150" r="3.66" fill="#A9BDF0" opacity="0.205"/>
<circle cx="410" cy="150" r="3.66" fill="#A9BDF0" opacity="0.205"/>
<circle cx="430" cy="150" r="3.66" fill="#A9BDF0" opacity="0.205"/>
<circle cx="450" cy="150" r="3.66" fill="#A9BDF0" opacity="0.205"/>
<circle cx="470" cy="150" r="3.66" fill="#A9BDF0" opacity="0.205"/>
<circle cx="490" cy="150" r="3.66" fill="#A9BDF0" opacity="0.205"/>
<circle cx="510" cy="150" r="3.66" fill="#A9BDF0" opacity="0.205"/>
<circle cx="530" cy="150" r="3.66" fill="#A9BDF0" opacity="0.205"/>
<circle cx="550" cy="150" r="3.66" fill="#A9BDF0" opacity="0.205"/>
<circle cx="570" cy="150" r="3.66" fill="#A9BDF0" opacity="0.205"/>
<circle cx="590" cy="150" r="3.66" fill="#A9BDF0" opacity="0.205"/>
<circle cx="610" cy="150" r="3.66" fill="#A9BDF0" opacity="0.205"/>
<circle cx="630" cy="150" r="3.66" fill="#A9BDF0" opacity="0.205"/>
<circle cx="650" cy="150" r="3.66" fill="#A9BDF0" opacity="0.205"/>
<circle cx="670" cy="150" r="3.66" fill="#A9BDF0" opacity="0.205"/>
<circle cx="690" cy="150" r="3.66" fill="#A9BDF0" opacity="0.205"/>
<circle cx="710" cy="150" r="3.66" fill="#A9BDF0" opacity="0.205"/>
<circle cx="730" cy="150" r="3.66" fill="#A9BDF0" opacity="0.205"/>
<circle cx="750" cy="150" r="3.66" fill="#A9BDF0" opacity="0.205"/>
<circle cx="770" cy="150" r="3.66" fill="#A9BDF0" opacity="0.205"/>
<circle cx="790" cy="150" r="3.66" fill="#A9BDF0" opacity="0.205"/>
<circle cx="10" cy="170" r="4.0" fill="#A9BDF0" opacity="0.26"/>
<circle cx="30" cy="170" r="4.0" fill="#A9BDF0" opacity="0.26"/>
<circle cx="50" cy="170" r="4.0" fill="#A9BDF0" opacity="0.26"/>
<circle cx="70" cy="170" r="4.0" fill="#A9BDF0" opacity="0.26"/>
<circle cx="90" cy="170" r="4.0" fill="#A9BDF0" opacity="0.26"/>
<circle cx="110" cy="170" r="4.0" fill="#A9BDF0" opacity="0.26"/>
<circle cx="130" cy="170" r="4.0" fill="#A9BDF0" opacity="0.26"/>
<circle cx="150" cy="170" r="4.0" fill="#A9BDF0" opacity="0.26"/>
<circle cx="170" cy="170" r="4.0" fill="#A9BDF0" opacity="0.26"/>
<circle cx="190" cy="170" r="4.0" fill="#A9BDF0" opacity="0.26"/>
<circle cx="210" cy="170" r="4.0" fill="#A9BDF0" opacity="0.26"/>
<circle cx="230" cy="170" r="4.0" fill="#A9BDF0" opacity="0.26"/>
<circle cx="250" cy="170" r="4.0" fill="#A9BDF0" opacity="0.26"/>
<circle cx="270" cy="170" r="4.0" fill="#A9BDF0" opacity="0.26"/>
<circle cx="290" cy="170" r="4.0" fill="#A9BDF0" opacity="0.26"/>
<circle cx="310" cy="170" r="4.0" fill="#A9BDF0" opacity="0.26"/>
<circle cx="330" cy="170" r="4.0" fill="#A9BDF0" opacity="0.26"/>
<circle cx="350" cy="170" r="4.0" fill="#A9BDF0" opacity="0.26"/>
<circle cx="370" cy="170" r="4.0" fill="#A9BDF0" opacity="0.26"/>
<circle cx="390" cy="170" r="4.0" fill="#A9BDF0" opacity="0.26"/>
<circle cx="410" cy="170" r="4.0" fill="#A9BDF0" opacity="0.26"/>
<circle cx="430" cy="170" r="4.0" fill="#A9BDF0" opacity="0.26"/>
<circle cx="450" cy="170" r="4.0" fill="#A9BDF0" opacity="0.26"/>
<circle cx="470" cy="170" r="4.0" fill="#A9BDF0" opacity="0.26"/>
<circle cx="490" cy="170" r="4.0" fill="#A9BDF0" opacity="0.26"/>
<circle cx="510" cy="170" r="4.0" fill="#A9BDF0" opacity="0.26"/>
<circle cx="530" cy="170" r="4.0" fill="#A9BDF0" opacity="0.26"/>
<circle cx="550" cy="170" r="4.0" fill="#A9BDF0" opacity="0.26"/>
<circle cx="570" cy="170" r="4.0" fill="#A9BDF0" opacity="0.26"/>
<circle cx="590" cy="170" r="4.0" fill="#A9BDF0" opacity="0.26"/>
<circle cx="610" cy="170" r="4.0" fill="#A9BDF0" opacity="0.26"/>
<circle cx="630" cy="170" r="4.0" fill="#A9BDF0" opacity="0.26"/>
<circle cx="650" cy="170" r="4.0" fill="#A9BDF0" opacity="0.26"/>
<circle cx="670" cy="170" r="4.0" fill="#A9BDF0" opacity="0.26"/>
<circle cx="690" cy="170" r="4.0" fill="#A9BDF0" opacity="0.26"/>
<circle cx="710" cy="170" r="4.0" fill="#A9BDF0" opacity="0.26"/>
<circle cx="730" cy="170" r="4.0" fill="#A9BDF0" opacity="0.26"/>
<circle cx="750" cy="170" r="4.0" fill="#A9BDF0" opacity="0.26"/>
<circle cx="770" cy="170" r="4.0" fill="#A9BDF0" opacity="0.26"/>
<circle cx="790" cy="170" r="4.0" fill="#A9BDF0" opacity="0.26"/>
</svg>